<?xml version="1.0" encoding="UTF-8" standalone="no"?>
<!DOCTYPE svg PUBLIC "-//W3C//DTD SVG 1.1//EN" "http://www.w3.org/Graphics/SVG/1.1/DTD/svg11.dtd">
<svg width="100%" height="100%" viewBox="0 0 85 58" version="1.1" xmlns="http://www.w3.org/2000/svg" xmlns:xlink="http://www.w3.org/1999/xlink" xml:space="preserve" xmlns:serif="http://www.serif.com/" style="fill-rule:evenodd;clip-rule:evenodd;stroke-linejoin:round;stroke-miterlimit:2;">
    <g id="Calque-2" serif:id="Calque 2" transform="matrix(0.211462,0,0,0.211462,-4.81625,-12.221)">
        <g transform="matrix(36.1688,63.7058,63.7058,-36.1688,347.253,62.2515)">
            <path d="M-0.11,-0.336L0.962,-0.336L0.867,0.655C0.503,0.652 0.186,0.451 0.018,0.154C-0.065,0.009 -0.111,-0.158 -0.11,-0.336Z" style="fill:url(#_Linear1);fill-rule:nonzero;"/>
        </g>
        <g transform="matrix(390.334,-295.362,-295.362,-390.334,102.704,380.287)">
            <path d="M0.813,0.211C0.802,0.219 0.79,0.226 0.776,0.231C0.774,0.232 0.772,0.233 0.769,0.234C0.761,0.236 0.752,0.238 0.743,0.24L0.722,0.081L0.857,0.076L0.872,0.091C0.873,0.139 0.85,0.183 0.813,0.211C0.813,0.211 0.813,0.211 0.813,0.211Z" style="fill:url(#_Linear2);fill-rule:nonzero;"/>
        </g>
        <g transform="matrix(411,-311,-311,-411,43.808,384.024)">
            <path d="M0.792,0.1L0.781,0.013L0.922,0.008L0.922,0.008C0.926,0.039 0.92,0.069 0.905,0.094C0.863,0.092 0.826,0.094 0.792,0.1Z" style="fill:url(#_Linear3);fill-rule:nonzero;"/>
        </g>
        <g transform="matrix(168.513,-375.588,-375.588,-168.513,362.418,441.314)">
            <path d="M0.698,0.339L0.676,0.308L0.827,0.218L0.829,0.219C0.841,0.235 0.849,0.253 0.854,0.271C0.799,0.278 0.746,0.302 0.698,0.339Z" style="fill:url(#_Linear4);fill-rule:nonzero;"/>
        </g>
        <g transform="matrix(-6.52438,-594.65,-594.65,6.52438,207.321,591.207)">
            <path d="M0.879,0.046L0.879,0.046C0.879,0.046 0.879,0.046 0.879,0.046L0.68,0.048L0.835,0.136C0.894,0.168 0.914,0.243 0.882,0.301L0.882,0.301L0.437,0.051C0.437,0.051 0.437,0.051 0.437,0.051L0.437,0.051C0.436,-0.016 0.49,-0.071 0.557,-0.072L0.668,-0.073L0.434,-0.205C0.467,-0.263 0.541,-0.283 0.599,-0.251L0.833,-0.12C0.872,-0.098 0.894,-0.057 0.894,-0.015C0.895,0.006 0.89,0.026 0.879,0.046Z" style="fill:url(#_Linear5);fill-rule:nonzero;"/>
        </g>
        <g transform="matrix(390.334,-295.362,-295.362,-390.334,-13.8662,226.235)">
            <path d="M0.501,0.024L0.501,0.024C0.501,0.024 0.501,0.024 0.501,0.024L0.36,-0.162C0.395,-0.181 0.508,-0.239 0.61,-0.291L0.629,-0.14C0.635,-0.086 0.612,-0.035 0.571,-0.004C0.551,0.011 0.527,0.021 0.501,0.024ZM0.254,0.211L0.254,0.211L0.217,-0.084C0.283,-0.119 0.346,-0.152 0.35,-0.155C0.35,-0.156 0.352,-0.157 0.356,-0.159L0.382,0.047C0.388,0.101 0.365,0.152 0.324,0.183C0.304,0.198 0.28,0.208 0.254,0.211Z" style="fill:url(#_Linear6);fill-rule:nonzero;"/>
        </g>
        <g transform="matrix(411,-311,-311,-411,-10.2187,312.625)">
            <path d="M0.399,0.314C0.377,0.32 0.355,0.323 0.335,0.324L0.275,-0.15C0.284,-0.157 0.29,-0.161 0.291,-0.162C0.294,-0.165 0.349,-0.205 0.418,-0.255C0.434,-0.246 0.448,-0.233 0.459,-0.218L0.537,-0.116L0.511,-0.321C0.545,-0.345 0.578,-0.369 0.607,-0.39C0.632,-0.368 0.65,-0.337 0.654,-0.302L0.687,-0.037C0.604,0.008 0.569,0.08 0.554,0.123C0.553,0.126 0.551,0.13 0.55,0.134L0.432,-0.022L0.458,0.182C0.464,0.234 0.442,0.282 0.403,0.311C0.402,0.312 0.4,0.313 0.399,0.314Z" style="fill:url(#_Linear7);fill-rule:nonzero;"/>
        </g>
        <g transform="matrix(168.513,-375.588,-375.588,-168.513,115.984,330.748)">
            <path d="M0.462,0.417C0.46,0.419 0.458,0.421 0.456,0.424L0.056,-0.13C0.056,-0.13 0.056,-0.13 0.056,-0.13L0.056,-0.13C0.096,-0.218 0.2,-0.258 0.288,-0.218L0.434,-0.153L0.207,-0.467C0.285,-0.523 0.395,-0.505 0.452,-0.427L0.605,-0.215C0.604,-0.214 0.603,-0.213 0.602,-0.212C0.513,-0.074 0.528,-0.016 0.538,0.086L0.376,0.013L0.527,0.223C0.532,0.23 0.537,0.237 0.541,0.244C0.537,0.283 0.529,0.313 0.518,0.338C0.502,0.373 0.482,0.396 0.462,0.417Z" style="fill:url(#_Linear8);fill-rule:nonzero;"/>
        </g>
        <g transform="matrix(122.652,-262.761,-262.761,-122.652,111.749,342.028)">
            <path d="M0.205,-0.065L0.33,-0.323C0.372,-0.326 0.414,-0.319 0.454,-0.301L0.66,-0.204L0.432,-0.532L0.512,-0.698C0.582,-0.691 0.648,-0.655 0.692,-0.594L0.892,-0.307C0.869,-0.285 0.845,-0.265 0.821,-0.246C0.734,-0.177 0.65,-0.112 0.635,0.04C0.635,0.046 0.634,0.052 0.634,0.057L0.575,0.03L0.633,0.113C0.638,0.31 0.739,0.374 0.671,0.602L0.205,-0.065Z" style="fill:url(#_Linear9);fill-rule:nonzero;"/>
        </g>
        <g transform="matrix(-5.00549,-456.215,-456.215,5.00549,235.6,557.387)">
            <path d="M0.885,0.347L0.496,0.129C0.496,0.129 0.496,0.129 0.496,0.129L0.496,0.129C0.495,0.042 0.566,-0.03 0.653,-0.031L0.728,-0.032C0.741,0.049 0.782,0.115 0.821,0.161C0.842,0.186 0.887,0.242 0.888,0.313C0.888,0.324 0.887,0.335 0.885,0.347ZM0.724,-0.074L0.493,-0.204C0.535,-0.28 0.632,-0.307 0.708,-0.264L0.759,-0.235C0.732,-0.178 0.722,-0.124 0.724,-0.074Z" style="fill:url(#_Linear10);fill-rule:nonzero;"/>
        </g>
        <g transform="matrix(-3.02405,-275.62,-275.62,3.02405,297.495,459.669)">
            <path d="M0.703,0.026L0.464,-0.109C0.534,-0.234 0.694,-0.279 0.819,-0.209C0.779,-0.12 0.735,-0.049 0.703,0.026ZM0.47,0.441C0.47,0.441 0.47,0.441 0.47,0.441L0.47,0.441C0.468,0.321 0.55,0.218 0.661,0.187C0.651,0.286 0.667,0.41 0.73,0.588L0.47,0.441Z" style="fill:url(#_Linear11);fill-rule:nonzero;"/>
        </g>
    </g>
    <defs>
        <linearGradient id="_Linear1" x1="0" y1="0" x2="1" y2="0" gradientUnits="userSpaceOnUse" gradientTransform="matrix(-0.591314,0.806441,0.806441,0.591314,0.788429,-0.399558)"><stop offset="0" style="stop-color:rgb(0,224,219);stop-opacity:1"/><stop offset="1" style="stop-color:rgb(92,78,227);stop-opacity:1"/></linearGradient>
        <linearGradient id="_Linear2" x1="0" y1="0" x2="1" y2="0" gradientUnits="userSpaceOnUse" gradientTransform="matrix(1,-5.55112e-17,-5.55112e-17,-1,0,0.315238)"><stop offset="0" style="stop-color:rgb(0,224,219);stop-opacity:1"/><stop offset="1" style="stop-color:rgb(92,78,227);stop-opacity:1"/></linearGradient>
        <linearGradient id="_Linear3" x1="0" y1="0" x2="1" y2="0" gradientUnits="userSpaceOnUse" gradientTransform="matrix(1,0,0,-1,0,0.108395)"><stop offset="0" style="stop-color:rgb(0,224,219);stop-opacity:1"/><stop offset="1" style="stop-color:rgb(92,78,227);stop-opacity:1"/></linearGradient>
        <linearGradient id="_Linear4" x1="0" y1="0" x2="1" y2="0" gradientUnits="userSpaceOnUse" gradientTransform="matrix(1,0,0,-1,0,0.55677)"><stop offset="0" style="stop-color:rgb(0,224,219);stop-opacity:1"/><stop offset="1" style="stop-color:rgb(92,78,227);stop-opacity:1"/></linearGradient>
        <linearGradient id="_Linear5" x1="0" y1="0" x2="1" y2="0" gradientUnits="userSpaceOnUse" gradientTransform="matrix(1,0,0,-1,0,0.0172022)"><stop offset="0" style="stop-color:rgb(0,224,219);stop-opacity:1"/><stop offset="1" style="stop-color:rgb(92,78,227);stop-opacity:1"/></linearGradient>
        <linearGradient id="_Linear6" x1="0" y1="0" x2="1" y2="0" gradientUnits="userSpaceOnUse" gradientTransform="matrix(1,-5.55112e-17,-5.55112e-17,-1,0,-0.0794294)"><stop offset="0" style="stop-color:rgb(0,224,219);stop-opacity:1"/><stop offset="1" style="stop-color:rgb(92,78,227);stop-opacity:1"/></linearGradient>
        <linearGradient id="_Linear7" x1="0" y1="0" x2="1" y2="0" gradientUnits="userSpaceOnUse" gradientTransform="matrix(1,0,0,-1,0,-0.0653245)"><stop offset="0" style="stop-color:rgb(0,224,219);stop-opacity:1"/><stop offset="1" style="stop-color:rgb(92,78,227);stop-opacity:1"/></linearGradient>
        <linearGradient id="_Linear8" x1="0" y1="0" x2="1" y2="0" gradientUnits="userSpaceOnUse" gradientTransform="matrix(1,0,0,-1,0,-0.0993581)"><stop offset="0" style="stop-color:rgb(0,224,219);stop-opacity:1"/><stop offset="1" style="stop-color:rgb(92,78,227);stop-opacity:1"/></linearGradient>
        <linearGradient id="_Linear9" x1="0" y1="0" x2="1" y2="0" gradientUnits="userSpaceOnUse" gradientTransform="matrix(1,-5.55112e-17,-5.55112e-17,-1,0,-0.0965698)"><stop offset="0" style="stop-color:rgb(0,224,219);stop-opacity:1"/><stop offset="1" style="stop-color:rgb(92,78,227);stop-opacity:1"/></linearGradient>
        <linearGradient id="_Linear10" x1="0" y1="0" x2="1" y2="0" gradientUnits="userSpaceOnUse" gradientTransform="matrix(1,0,0,-1,0,0.0405693)"><stop offset="0" style="stop-color:rgb(0,224,219);stop-opacity:1"/><stop offset="1" style="stop-color:rgb(92,78,227);stop-opacity:1"/></linearGradient>
        <linearGradient id="_Linear11" x1="0" y1="0" x2="1" y2="0" gradientUnits="userSpaceOnUse" gradientTransform="matrix(1,0,0,-1,0,0.308934)"><stop offset="0" style="stop-color:rgb(0,224,219);stop-opacity:1"/><stop offset="1" style="stop-color:rgb(92,78,227);stop-opacity:1"/></linearGradient>
    </defs>
</svg>
